Monda-Bold-condensed.ufo
<glyph name="numbersign" format="1">
  <advance width="1046"/>
  <unicode hex="0023"/>
  <outline>
    <contour>
      <point x="127" y="0" type="line"/>
      <point x="297" y="0" type="line"/>
      <point x="430" y="510" type="line"/>
      <point x="584" y="510" type="line"/>
      <point x="512" y="0" type="line"/>
      <point x="682" y="0" type="line"/>
      <point x="756" y="510" type="line"/>
      <point x="943" y="510" type="line"/>
      <point x="943" y="721" type="line"/>
      <point x="786" y="721" type="line"/>
      <point x="800" y="815" type="line"/>
      <point x="943" y="815" type="line"/>
      <point x="943" y="1026" type="line"/>
      <point x="830" y="1026" type="line"/>
      <point x="897" y="1490" type="line"/>
      <point x="724" y="1490" type="line"/>
      <point x="658" y="1026" type="line"/>
      <point x="541" y="1026" type="line"/>
      <point x="608" y="1490" type="line"/>
      <point x="373" y="1490" type="line"/>
      <point x="273" y="1026" type="line"/>
      <point x="82" y="1026" type="line"/>
      <point x="82" y="815" type="line"/>
      <point x="242" y="815" type="line"/>
      <point x="229" y="721" type="line"/>
      <point x="82" y="721" type="line"/>
      <point x="82" y="510" type="line"/>
      <point x="199" y="510" type="line"/>
    </contour>
    <contour>
      <point x="485" y="721" type="line"/>
      <point x="509" y="815" type="line"/>
      <point x="627" y="815" type="line"/>
      <point x="614" y="721" type="line"/>
    </contour>
  </outline>
</glyph>
<glyph name="plus" format="1">
  <advance width="630"/>
  <unicode hex="002B"/>
  <outline>
    <contour>
      <point x="58" y="482" type="line"/>
      <point x="219" y="482" type="line"/>
      <point x="219" y="322" type="line"/>
      <point x="403" y="322" type="line"/>
      <point x="403" y="482" type="line"/>
      <point x="564" y="482" type="line"/>
      <point x="564" y="667" type="line"/>
      <point x="403" y="667" type="line"/>
      <point x="403" y="828" type="line"/>
      <point x="219" y="828" type="line"/>
      <point x="219" y="667" type="line"/>
      <point x="58" y="667" type="line"/>
    </contour>
  </outline>
</glyph>
<glyph name="six" format="1">
  <advance width="1098"/>
  <unicode hex="0036"/>
  <outline>
    <contour>
      <point x="72" y="455" type="line" smooth="yes"/>
      <point x="72" y="222"/>
      <point x="186" y="-24"/>
      <point x="562" y="-24" type="curve" smooth="yes"/>
      <point x="947" y="-24"/>
      <point x="1053" y="232"/>
      <point x="1053" y="488" type="curve" smooth="yes"/>
      <point x="1053" y="729"/>
      <point x="985" y="941"/>
      <point x="668" y="941" type="curve" smooth="yes"/>
      <point x="562" y="941"/>
      <point x="452" y="925"/>
      <point x="361" y="890" type="curve"/>
      <point x="361" y="975" type="line" smooth="yes"/>
      <point x="360" y="1078"/>
      <point x="373" y="1266"/>
      <point x="562" y="1266" type="curve" smooth="yes"/>
      <point x="729" y="1266"/>
      <point x="735" y="1140"/>
      <point x="735" y="1061" type="curve"/>
      <point x="1029" y="1061" type="line"/>
      <point x="1029" y="1087" type="line" smooth="yes"/>
      <point x="1029" y="1330"/>
      <point x="902" y="1518"/>
      <point x="562" y="1518" type="curve" smooth="yes"/>
      <point x="154" y="1518"/>
      <point x="72" y="1230"/>
      <point x="72" y="983" type="curve" smooth="yes"/>
    </contour>
    <contour>
      <point x="362" y="631" type="line"/>
      <point x="405" y="669"/>
      <point x="477" y="700"/>
      <point x="562" y="700" type="curve" smooth="yes"/>
      <point x="762" y="700"/>
      <point x="765" y="563"/>
      <point x="765" y="480" type="curve" smooth="yes"/>
      <point x="765" y="406"/>
      <point x="768" y="224"/>
      <point x="562" y="224" type="curve" smooth="yes"/>
      <point x="385" y="224"/>
      <point x="362" y="366"/>
      <point x="362" y="438" type="curve" smooth="yes"/>
    </contour>
  </outline>
</glyph>
<glyph name="C" format="1">
  <advance width="1410"/>
  <unicode hex="0043"/>
  <outline>
    <contour>
      <point x="964" y="903" type="line"/>
      <point x="1296" y="903" type="line"/>
      <point x="1296" y="1007" type="line" smooth="yes"/>
      <point x="1296" y="1302"/>
      <point x="1246" y="1518"/>
      <point x="807" y="1518" type="curve" smooth="yes"/>
      <point x="667" y="1518" type="line" smooth="yes"/>
      <point x="228" y="1518"/>
      <point x="129" y="1331"/>
      <point x="129" y="1007" type="curve" smooth="yes"/>
      <point x="129" y="473" type="line" smooth="yes"/>
      <point x="129" y="162"/>
      <point x="231" y="-29"/>
      <point x="667" y="-29" type="curve" smooth="yes"/>
      <point x="807" y="-29" type="line" smooth="yes"/>
      <point x="1243" y="-29"/>
      <point x="1296" y="186"/>
      <point x="1296" y="473" type="curve" smooth="yes"/>
      <point x="1296" y="593" type="line"/>
      <point x="964" y="593" type="line"/>
      <point x="964" y="404" type="line" smooth="yes"/>
      <point x="964" y="286"/>
      <point x="930" y="237"/>
      <point x="720" y="237" type="curve" smooth="yes"/>
      <point x="513" y="237"/>
      <point x="467" y="285"/>
      <point x="467" y="404" type="curve" smooth="yes"/>
      <point x="467" y="1082" type="line" smooth="yes"/>
      <point x="467" y="1200"/>
      <point x="515" y="1252"/>
      <point x="720" y="1252" type="curve" smooth="yes"/>
      <point x="927" y="1252"/>
      <point x="964" y="1194"/>
      <point x="964" y="1082" type="curve" smooth="yes"/>
    </contour>
  </outline>
</glyph>
<glyph name="G" format="1">
  <advance width="1397"/>
  <unicode hex="0047"/>
  <outline>
    <contour>
      <point x="1225" y="0" type="curve"/>
      <point x="1296" y="0" type="line"/>
      <point x="1296" y="766" type="line"/>
      <point x="748" y="766" type="line"/>
      <point x="748" y="550" type="line"/>
      <point x="1025" y="550" type="line"/>
      <point x="1025" y="550"/>
      <point x="1225" y="0"/>
    </contour>
    <component base="C"/>
  </outline>
</glyph>
<glyph name="N" format="1">
  <advance width="1427"/>
  <unicode hex="004E"/>
  <outline>
    <contour>
      <point x="154" y="0" type="line"/>
      <point x="460" y="0" type="line"/>
      <point x="460" y="868" type="line"/>
      <point x="1028" y="0" type="line"/>
      <point x="1273" y="0" type="line"/>
      <point x="1273" y="1490" type="line"/>
      <point x="967" y="1490" type="line"/>
      <point x="967" y="612" type="line"/>
      <point x="402" y="1490" type="line"/>
      <point x="154" y="1490" type="line"/>
    </contour>
  </outline>
</glyph>
<glyph name="Q" format="1">
  <advance width="1387"/>
  <unicode hex="0051"/>
  <outline>
    <contour>
      <point x="522.0" y="-14.0" type="line"/>
      <point x="655.0" y="-256.0"/>
      <point x="904.0" y="-374.0"/>
      <point x="1006.0" y="-374.0" type="curve"/>
      <point x="1096.0" y="-191.0" type="line"/>
      <point x="959" y="-131"/>
      <point x="868" y="-41"/>
      <point x="839" y="46" type="curve"/>
    </contour>
    <component base="O"/>
  </outline>
</glyph>
<glyph name="R" format="1">
  <advance width="1398"/>
  <unicode hex="0052"/>
  <outline>
    <contour>
      <point x="154" y="0" type="line"/>
      <point x="493" y="0" type="line"/>
      <point x="493" y="646" type="line"/>
      <point x="723" y="646" type="line"/>
      <point x="967" y="0" type="line"/>
      <point x="1329" y="0" type="line"/>
      <point x="1035" y="704" type="line"/>
      <point x="1075" y="720" type="line"/>
      <point x="1238" y="779"/>
      <point x="1266" y="966"/>
      <point x="1266" y="1097" type="curve" smooth="yes"/>
      <point x="1266" y="1327"/>
      <point x="1199" y="1490"/>
      <point x="741" y="1490" type="curve" smooth="yes"/>
      <point x="154" y="1490" type="line"/>
    </contour>
    <contour>
      <point x="493" y="884" type="line"/>
      <point x="493" y="1252" type="line"/>
      <point x="721" y="1252" type="line" smooth="yes"/>
      <point x="883" y="1252"/>
      <point x="927" y="1185"/>
      <point x="927" y="1073" type="curve" smooth="yes"/>
      <point x="927" y="952"/>
      <point x="889" y="884"/>
      <point x="709" y="884" type="curve" smooth="yes"/>
    </contour>
  </outline>
</glyph>
<glyph name="U" format="1">
  <advance width="1443"/>
  <unicode hex="0055"/>
  <outline>
    <contour>
      <point x="975" y="1490" type="line"/>
      <point x="975" y="404" type="line" smooth="yes"/>
      <point x="975" y="286"/>
      <point x="943" y="237"/>
      <point x="733" y="237" type="curve" smooth="yes"/>
      <point x="526" y="237"/>
      <point x="468" y="285"/>
      <point x="468" y="404" type="curve" smooth="yes"/>
      <point x="468" y="1490" type="line"/>
      <point x="129" y="1490" type="line"/>
      <point x="129" y="473" type="line" smooth="yes"/>
      <point x="129" y="186"/>
      <point x="244" y="-29"/>
      <point x="680" y="-29" type="curve" smooth="yes"/>
      <point x="785" y="-29" type="line" smooth="yes"/>
      <point x="1221" y="-29"/>
      <point x="1314" y="203"/>
      <point x="1314" y="490" type="curve" smooth="yes"/>
      <point x="1314" y="1490" type="line"/>
    </contour>
  </outline>
</glyph>
<glyph name="V" format="1">
  <advance width="1213"/>
  <unicode hex="0056"/>
  <outline>
    <contour>
      <point x="340" y="0" type="line"/>
      <point x="616" y="0" type="line"/>
      <point x="1204" y="1490" type="line"/>
      <point x="860" y="1490" type="line"/>
      <point x="598" y="587" type="line"/>
      <point x="361" y="1490" type="line"/>
      <point x="10" y="1490" type="line"/>
    </contour>
  </outline>
</glyph>
<glyph name="Z" format="1">
  <advance width="1050"/>
  <unicode hex="005A"/>
  <outline>
    <contour>
      <point x="66" y="0" type="line"/>
      <point x="979" y="0" type="line"/>
      <point x="979" y="207" type="line"/>
      <point x="431" y="207" type="line"/>
      <point x="979" y="1299" type="line"/>
      <point x="979" y="1489" type="line"/>
      <point x="112" y="1489" type="line"/>
      <point x="112" y="1282" type="line"/>
      <point x="611" y="1282" type="line"/>
      <point x="66" y="189" type="line"/>
    </contour>
  </outline>
</glyph>
<glyph name="f" format="1">
  <advance width="671"/>
  <unicode hex="0066"/>
  <outline>
    <contour>
      <point x="161" y="0" type="line"/>
      <point x="471" y="0" type="line"/>
      <point x="471" y="894" type="line"/>
      <point x="640" y="894" type="line"/>
      <point x="640" y="1080" type="line"/>
      <point x="471" y="1080" type="line"/>
      <point x="471" y="1130" type="line" smooth="yes"/>
      <point x="471" y="1201"/>
      <point x="493" y="1221"/>
      <point x="537" y="1221" type="curve" smooth="yes"/>
      <point x="553" y="1221"/>
      <point x="643" y="1216"/>
      <point x="643" y="1216" type="curve"/>
      <point x="643" y="1424" type="line"/>
      <point x="643" y="1424"/>
      <point x="513" y="1436"/>
      <point x="434" y="1436" type="curve" smooth="yes"/>
      <point x="222" y="1436"/>
      <point x="163" y="1257"/>
      <point x="161" y="1082" type="curve"/>
      <point x="161" y="1080" type="line"/>
      <point x="65" y="1080" type="line"/>
      <point x="65" y="894" type="line"/>
      <point x="161" y="894" type="line"/>
    </contour>
  </outline>
</glyph>
<glyph name="o" format="1">
  <advance width="1090"/>
  <unicode hex="006F"/>
  <outline>
    <contour>
      <point x="97" y="281" type="line" smooth="yes"/>
      <point x="97" y="96"/>
      <point x="317" y="-24"/>
      <point x="542" y="-24" type="curve" smooth="yes"/>
      <point x="832" y="-24"/>
      <point x="993" y="96"/>
      <point x="993" y="281" type="curve" smooth="yes"/>
      <point x="993" y="740" type="line" smooth="yes"/>
      <point x="993" y="962"/>
      <point x="889" y="1104"/>
      <point x="541" y="1104" type="curve" smooth="yes"/>
      <point x="257" y="1104"/>
      <point x="97" y="961"/>
      <point x="97" y="740" type="curve" smooth="yes"/>
    </contour>
    <contour>
      <point x="683" y="277" type="line" smooth="yes"/>
      <point x="683" y="239"/>
      <point x="646" y="186"/>
      <point x="543" y="186" type="curve" smooth="yes"/>
      <point x="444" y="186"/>
      <point x="407" y="241"/>
      <point x="407" y="277" type="curve" smooth="yes"/>
      <point x="407" y="812" type="line" smooth="yes"/>
      <point x="407" y="847"/>
      <point x="454" y="894"/>
      <point x="545" y="894" type="curve" smooth="yes"/>
      <point x="639" y="894"/>
      <point x="683" y="849"/>
      <point x="683" y="812" type="curve" smooth="yes"/>
    </contour>
  </outline>
</glyph>
<glyph name="p" format="1">
  <advance width="1129"/>
  <unicode hex="0070"/>
  <outline>
    <contour>
      <point x="167" y="667" type="line"/>
      <point x="433" y="667" type="line"/>
      <point x="433" y="843" type="line"/>
      <point x="453" y="861"/>
      <point x="501" y="894"/>
      <point x="588" y="894" type="curve" smooth="yes"/>
      <point x="687" y="894"/>
      <point x="722" y="834"/>
      <point x="722" y="798" type="curve" smooth="yes"/>
      <point x="722" y="271" type="line" smooth="yes"/>
      <point x="722" y="223"/>
      <point x="662" y="186"/>
      <point x="575" y="186" type="curve" smooth="yes"/>
      <point x="512" y="186"/>
      <point x="461" y="204"/>
      <point x="433" y="230" type="curve"/>
      <point x="433" y="401" type="line"/>
      <point x="167" y="401" type="line"/>
      <point x="167" y="380" type="line" smooth="yes"/>
      <point x="167" y="348"/>
      <point x="272" y="-24"/>
      <point x="620" y="-24" type="curve" smooth="yes"/>
      <point x="895" y="-24"/>
      <point x="1032" y="119"/>
      <point x="1032" y="340" type="curve" smooth="yes"/>
      <point x="1032" y="799" type="line" smooth="yes"/>
      <point x="1032" y="981"/>
      <point x="855" y="1104"/>
      <point x="630" y="1104" type="curve" smooth="yes"/>
      <point x="340" y="1104"/>
      <point x="167" y="848"/>
      <point x="167" y="669" type="curve" smooth="yes"/>
    </contour>
    <contour>
      <point x="122" y="1080" type="line"/>
      <point x="122" y="-410" type="line"/>
      <point x="433" y="-410" type="line"/>
      <point x="433" y="855" type="line"/>
      <point x="333" y="1080" type="line"/>
    </contour>
  </outline>
</glyph>
<glyph name="t" format="1">
  <advance width="741"/>
  <unicode hex="0074"/>
  <outline>
    <contour>
      <point x="166" y="894" type="line"/>
      <point x="166" y="338" type="line" smooth="yes"/>
      <point x="166" y="115"/>
      <point x="244" y="0"/>
      <point x="476" y="0" type="curve" smooth="yes"/>
      <point x="661" y="0" type="line"/>
      <point x="661" y="220" type="line"/>
      <point x="506" y="220"/>
      <point x="476" y="253"/>
      <point x="476" y="309" type="curve" smooth="yes"/>
      <point x="476" y="894" type="line"/>
      <point x="665" y="894" type="line"/>
      <point x="665" y="1080" type="line"/>
      <point x="476" y="1080" type="line"/>
      <point x="476" y="1435" type="line"/>
      <point x="202" y="1435" type="line"/>
      <point x="175" y="1080" type="line"/>
      <point x="65" y="1080" type="line"/>
      <point x="65" y="894" type="line"/>
    </contour>
  </outline>
</glyph>
<glyph name="u" format="1">
  <advance width="1145"/>
  <unicode hex="0075"/>
  <outline>
    <contour>
      <point x="1014" y="1080" type="line"/>
      <point x="704" y="1080" type="line"/>
      <point x="704" y="366" type="line"/>
      <point x="683" y="201"/>
      <point x="599" y="186"/>
      <point x="538" y="186" type="curve" smooth="yes"/>
      <point x="489" y="186"/>
      <point x="417" y="213"/>
      <point x="417" y="340" type="curve" smooth="yes"/>
      <point x="417" y="1080" type="line"/>
      <point x="106" y="1080" type="line"/>
      <point x="106" y="276" type="line" smooth="yes"/>
      <point x="106" y="89"/>
      <point x="242" y="-24"/>
      <point x="403" y="-24" type="curve" smooth="yes"/>
      <point x="550" y="-24"/>
      <point x="666" y="49"/>
      <point x="704" y="136" type="curve"/>
      <point x="704" y="0" type="line"/>
      <point x="1014" y="0" type="line"/>
    </contour>
  </outline>
</glyph>
<glyph name="x" format="1">
  <advance width="888"/>
  <unicode hex="0078"/>
  <outline>
    <contour>
      <point x="28" y="0" type="line"/>
      <point x="303" y="0" type="line"/>
      <point x="443" y="339" type="line"/>
      <point x="586" y="0" type="line"/>
      <point x="861" y="0" type="line"/>
      <point x="664" y="569" type="line"/>
      <point x="861" y="1080" type="line"/>
      <point x="586" y="1080" type="line"/>
      <point x="541" y="967"/>
      <point x="490" y="854"/>
      <point x="444" y="741" type="curve"/>
      <point x="303" y="1080" type="line"/>
      <point x="27" y="1080" type="line"/>
      <point x="227" y="569" type="line"/>
    </contour>
  </outline>
</glyph>
<glyph name="Acircumflex" format="1">
  <advance width="1175"/>
  <unicode hex="00C2"/>
  <outline>
    <contour>
      <point x="232" y="1563" type="line"/>
      <point x="477" y="1563" type="line"/>
      <point x="586" y="1730" type="line"/>
      <point x="697" y="1563" type="line"/>
      <point x="944" y="1563" type="line"/>
      <point x="774" y="1899" type="line"/>
      <point x="398" y="1899" type="line"/>
    </contour>
    <contour>
      <point x="53" y="0" type="line"/>
      <point x="400" y="0" type="line"/>
      <point x="467" y="319" type="line"/>
      <point x="825" y="319" type="line"/>
      <point x="892" y="0" type="line"/>
      <point x="1241" y="0" type="line"/>
      <point x="909" y="1490" type="line"/>
      <point x="386" y="1490" type="line"/>
    </contour>
    <contour>
      <point x="501" y="504" type="line"/>
      <point x="649" y="1280" type="line"/>
      <point x="789" y="504" type="line"/>
    </contour>
  </outline>
</glyph>
<glyph name="uring" format="1">
  <advance width="992"/>
  <unicode hex="016F"/>
  <outline>
    <contour>
      <point x="975" y="1080" type="line"/>
      <point x="664" y="1080" type="line"/>
      <point x="664" y="266" type="line" smooth="yes"/>
      <point x="664" y="229"/>
      <point x="595" y="186"/>
      <point x="534" y="186" type="curve" smooth="yes"/>
      <point x="485" y="186"/>
      <point x="441" y="213"/>
      <point x="441" y="290" type="curve" smooth="yes"/>
      <point x="441" y="1080" type="line"/>
      <point x="131" y="1080" type="line"/>
      <point x="131" y="226" type="line" smooth="yes"/>
      <point x="131" y="89"/>
      <point x="225" y="-24"/>
      <point x="386" y="-24" type="curve" smooth="yes"/>
      <point x="532" y="-24"/>
      <point x="606" y="30"/>
      <point x="664" y="76" type="curve"/>
      <point x="664" y="0" type="line"/>
      <point x="975" y="0" type="line"/>
    </contour>
    <contour>
      <point x="414" y="1288" type="curve" smooth="yes"/>
      <point x="364" y="1288"/>
      <point x="347" y="1346"/>
      <point x="347" y="1387" type="curve" smooth="yes"/>
      <point x="347" y="1427"/>
      <point x="365" y="1483"/>
      <point x="414" y="1483" type="curve" smooth="yes"/>
      <point x="462" y="1483"/>
      <point x="478" y="1423"/>
      <point x="478" y="1385" type="curve" smooth="yes"/>
      <point x="478" y="1346"/>
      <point x="462" y="1288"/>
    </contour>
    <contour>
      <point x="204" y="1386" type="curve" smooth="yes"/>
      <point x="204" y="1263"/>
      <point x="295" y="1188"/>
      <point x="414" y="1188" type="curve" smooth="yes"/>
      <point x="533" y="1188"/>
      <point x="623" y="1263"/>
      <point x="623" y="1386" type="curve" smooth="yes"/>
      <point x="623" y="1508"/>
      <point x="532" y="1583"/>
      <point x="414" y="1583" type="curve" smooth="yes"/>
      <point x="295" y="1583"/>
      <point x="204" y="1509"/>
    </contour>
  </outline>
</glyph>
<glyph name="Ycircumflex" format="1">
  <advance width="1204"/>
  <unicode hex="0176"/>
  <outline>
    <contour>
      <point x="246" y="1563" type="line"/>
      <point x="491" y="1563" type="line"/>
      <point x="600" y="1730" type="line"/>
      <point x="711" y="1563" type="line"/>
      <point x="958" y="1563" type="line"/>
      <point x="788" y="1899" type="line"/>
      <point x="412" y="1899" type="line"/>
    </contour>
    <contour>
      <point x="340" y="0" type="line"/>
      <point x="668" y="0" type="line"/>
      <point x="668" y="492" type="line"/>
      <point x="1206" y="1490" type="line"/>
      <point x="873" y="1490" type="line"/>
      <point x="782" y="1275"/>
      <point x="689" y="1050"/>
      <point x="598" y="835" type="curve"/>
      <point x="347" y="1490" type="line"/>
      <point x="-1" y="1490" type="line"/>
      <point x="340" y="492" type="line"/>
    </contour>
  </outline>
</glyph>
<glyph name="caron" format="1">
  <advance width="846"/>
  <unicode hex="02C7"/>
  <outline>
    <contour>
      <point x="233" y="1146" type="line"/>
      <point x="609" y="1146" type="line"/>
      <point x="779" y="1482" type="line"/>
      <point x="532" y="1482" type="line"/>
      <point x="420" y="1316" type="line"/>
      <point x="312" y="1482" type="line"/>
      <point x="66" y="1482" type="line"/>
    </contour>
  </outline>
</glyph>
<glyph name="uni1E1F" format="1">
  <advance width="535"/>
  <unicode hex="1E1F"/>
  <outline>
    <contour>
      <point x="161" y="0" type="line"/>
      <point x="471" y="0" type="line"/>
      <point x="471" y="894" type="line"/>
      <point x="640" y="894" type="line"/>
      <point x="640" y="1080" type="line"/>
      <point x="471" y="1080" type="line"/>
      <point x="471" y="1130" type="line" smooth="yes"/>
      <point x="471" y="1201"/>
      <point x="493" y="1221"/>
      <point x="537" y="1221" type="curve" smooth="yes"/>
      <point x="553" y="1221"/>
      <point x="643" y="1216"/>
      <point x="643" y="1216" type="curve"/>
      <point x="643" y="1424" type="line"/>
      <point x="643" y="1424"/>
      <point x="513" y="1436"/>
      <point x="434" y="1436" type="curve" smooth="yes"/>
      <point x="222" y="1436"/>
      <point x="163" y="1257"/>
      <point x="161" y="1082" type="curve"/>
      <point x="161" y="1080" type="line"/>
      <point x="65" y="1080" type="line"/>
      <point x="65" y="894" type="line"/>
      <point x="161" y="894" type="line"/>
    </contour>
    <contour>
      <point x="160" y="1536" type="line"/>
      <point x="427" y="1536" type="line"/>
      <point x="427" y="1800" type="line"/>
      <point x="160" y="1800" type="line"/>
    </contour>
  </outline>
</glyph>
<glyph name="uniFB00" format="1">
  <advance width="1244"/>
  <outline>
    <contour>
      <point x="117" y="0" type="line"/>
      <point x="396" y="0" type="line"/>
      <point x="396" y="894" type="line"/>
      <point x="816" y="894" type="line"/>
      <point x="816" y="0" type="line"/>
      <point x="1094" y="0" type="line"/>
      <point x="1094" y="894" type="line"/>
      <point x="1229" y="894" type="line"/>
      <point x="1229" y="1080" type="line"/>
      <point x="1094" y="1080" type="line"/>
      <point x="1094" y="1130" type="line" smooth="yes"/>
      <point x="1094" y="1201"/>
      <point x="1115" y="1221"/>
      <point x="1159" y="1221" type="curve" smooth="yes"/>
      <point x="1175" y="1221"/>
      <point x="1232" y="1216"/>
      <point x="1232" y="1216" type="curve"/>
      <point x="1232" y="1424" type="line"/>
      <point x="1232" y="1424"/>
      <point x="1135" y="1436"/>
      <point x="1056" y="1436" type="curve" smooth="yes"/>
      <point x="853" y="1436"/>
      <point x="821" y="1272"/>
      <point x="816" y="1104" type="curve"/>
      <point x="816" y="1080" type="line"/>
      <point x="396" y="1080" type="line"/>
      <point x="396" y="1130" type="line" smooth="yes"/>
      <point x="396" y="1201"/>
      <point x="433" y="1221"/>
      <point x="512" y="1221" type="curve" smooth="yes"/>
      <point x="540" y="1221"/>
      <point x="643" y="1216"/>
      <point x="643" y="1216" type="curve"/>
      <point x="643" y="1424" type="line"/>
      <point x="643" y="1424"/>
      <point x="468" y="1436"/>
      <point x="357" y="1436" type="curve" smooth="yes"/>
      <point x="154" y="1436"/>
      <point x="123" y="1272"/>
      <point x="118" y="1104" type="curve"/>
      <point x="118" y="1096"/>
      <point x="117" y="1088"/>
      <point x="117" y="1080" type="curve"/>
      <point x="54" y="1080" type="line"/>
      <point x="54" y="894" type="line"/>
      <point x="117" y="894" type="line"/>
    </contour>
  </outline>
</glyph>
